<svg width="50" height="80" viewBox="0 0 134 180" fill="none"
    xmlns="http://www.w3.org/2000/svg">
    <path d="M132.454 87.8338L71.3771 2.46372C70.273 0.91657 68.4867 0.00468834 66.588 0C66.5739 0 66.5739 0 66.5739 0C64.6634 0.00468834 62.8818 0.928292 61.773 2.48248L1.08945 87.8525C-0.190472 89.6505 -0.354561 92.0158 0.660465 93.9755C1.65908 95.9329 3.68914 97.1659 5.90203 97.1659H34.4611L34.4587 173.841C34.4587 177.1 37.0959 179.737 40.3567 179.737L93.1967 179.735C96.4527 179.737 99.0922 177.1 99.0946 173.834V97.1683H127.663C129.867 97.1683 131.89 95.9259 132.907 93.9638C133.92 92.0041 133.744 89.6341 132.454 87.8338Z" fill="#9FDEA9"/>
</svg>
