<svg width="253" height="253" viewBox="0 0 253 253" fill="none"
    xmlns="http://www.w3.org/2000/svg">
    <path d="M126.186 50.3345C84.2643 50.3345 50.2805 84.3183 50.2805 126.24C50.2805 168.162 84.2643 202.146 126.186 202.146C168.108 202.146 202.088 168.162 202.088 126.24C202.088 84.3183 168.105 50.3345 126.186 50.3345ZM126.186 168.684C102.742 168.684 83.7392 149.68 83.7392 126.24C83.7392 102.796 102.742 83.7931 126.186 83.7931C149.63 83.7931 168.63 102.796 168.63 126.24C168.63 149.68 149.626 168.684 126.186 168.684Z" fill="#28CA38"/>
    <path d="M126.24 0C56.5151 0 0 56.532 0 126.247C0 195.965 56.5151 252.48 126.24 252.48C195.965 252.48 252.48 195.965 252.48 126.247C252.48 56.532 195.965 0 126.24 0ZM126.24 219.021C75.0741 219.021 33.462 177.406 33.462 126.247C33.462 75.0943 75.0775 33.462 126.24 33.462C177.403 33.462 219.018 75.0943 219.018 126.247C219.018 177.403 177.403 219.021 126.24 219.021Z" fill="#28CA38"/>
    <path d="M126.186 151.895C140.355 151.895 151.841 140.409 151.841 126.24C151.841 112.071 140.355 100.585 126.186 100.585C112.017 100.585 100.531 112.071 100.531 126.24C100.531 140.409 112.017 151.895 126.186 151.895Z" fill="#28CA38"/>
</svg>
